<?xml version="1.0" standalone="no"?>
<!DOCTYPE svg PUBLIC "-//W3C//DTD SVG 20010904//EN"
 "http://www.w3.org/TR/2001/REC-SVG-20010904/DTD/svg10.dtd">
<svg version="1.0" xmlns="http://www.w3.org/2000/svg"
 width="630.000000pt" height="630.000000pt" viewBox="0 0 630.000000 630.000000"
 preserveAspectRatio="xMidYMid meet">
<metadata>
Created by potrace 1.14, written by Peter Selinger 2001-2017
</metadata>
<g transform="translate(0.000000,630.000000) scale(0.100000,-0.100000)"
fill="#000000" stroke="none">
<path d="M4564 6063 c-20 -7 -39 -11 -42 -8 -3 3 -11 0 -19 -6 -7 -6 -13 -9
-13 -5 0 10 -58 -21 -126 -67 -63 -43 -101 -86 -144 -165 -27 -49 -41 -56 -75
-38 -11 5 -29 11 -39 13 -11 2 -25 8 -31 13 -7 5 -15 7 -18 3 -4 -3 -7 -1 -7
6 0 7 -4 10 -10 6 -5 -3 -24 1 -42 8 -18 8 -36 14 -41 15 -38 3 -88 15 -92 22
-3 5 -12 7 -20 4 -8 -3 -20 -2 -27 2 -6 4 -21 8 -32 9 -54 5 -133 17 -146 22
-8 3 -28 7 -45 8 -16 1 -30 3 -30 4 0 5 -296 20 -410 22 -119 1 -372 -13 -455
-26 -41 -6 -60 -9 -140 -19 -14 -2 -33 -7 -42 -11 -9 -4 -22 -4 -28 0 -5 3
-10 1 -10 -6 0 -7 -3 -10 -6 -7 -3 4 -34 -2 -70 -12 -35 -10 -64 -17 -64 -15
0 2 -16 -3 -35 -11 -19 -8 -38 -13 -42 -12 -5 0 -21 -4 -38 -11 -16 -7 -38
-14 -48 -16 -9 -2 -21 -6 -26 -9 -4 -3 -26 19 -47 48 -22 30 -58 67 -81 82
-24 16 -43 32 -43 35 0 3 -18 12 -40 19 -22 7 -40 18 -40 23 0 6 -3 8 -6 5 -3
-4 -20 -2 -37 3 -64 19 -204 31 -209 18 -2 -4 -21 -9 -43 -12 -55 -6 -138 -40
-172 -71 -13 -11 -23 -16 -23 -12 0 3 -17 -12 -37 -35 -21 -23 -46 -50 -55
-61 -10 -10 -19 -21 -19 -25 -4 -21 -23 -53 -32 -53 -6 0 -7 -3 -4 -6 3 -4 1
-16 -5 -28 -13 -22 -14 -25 -23 -70 -3 -16 -9 -36 -13 -45 -5 -9 -6 -56 -4
-106 4 -117 5 -125 13 -125 4 0 10 -16 14 -36 3 -20 12 -45 18 -56 10 -16 8
-22 -10 -37 -12 -10 -20 -21 -17 -24 3 -3 -3 -12 -15 -19 -12 -7 -21 -16 -21
-20 0 -12 -54 -88 -62 -88 -5 0 -7 -4 -4 -8 3 -5 -10 -32 -29 -60 -19 -29 -32
-52 -30 -52 2 0 -9 -30 -25 -66 -17 -36 -30 -70 -30 -74 0 -5 -5 -21 -11 -37
-7 -15 -13 -35 -15 -43 -1 -8 -5 -26 -9 -40 -3 -14 -8 -35 -10 -48 -3 -12 -7
-34 -10 -50 -8 -43 -12 -73 -19 -137 -4 -33 -9 -73 -11 -90 -11 -67 -15 -129
-19 -310 -2 -104 -6 -210 -10 -235 -8 -68 -18 -202 -17 -229 0 -12 -2 -28 -5
-33 -7 -12 -14 -102 -14 -186 0 -29 -2 -58 -6 -64 -4 -5 -8 -58 -10 -117 -2
-58 -6 -160 -9 -226 -7 -140 -6 -780 1 -875 10 -127 21 -238 30 -290 3 -19 7
-48 9 -65 1 -16 6 -38 10 -47 4 -10 5 -25 2 -33 -4 -8 -2 -17 4 -21 6 -3 8
-12 5 -20 -3 -7 -1 -16 5 -20 6 -3 9 -16 8 -27 -1 -12 2 -30 6 -40 4 -10 5
-21 1 -24 -3 -3 -1 -12 4 -19 6 -6 10 -16 9 -20 -1 -5 1 -16 4 -24 10 -26 40
-134 40 -147 0 -7 4 -13 9 -13 5 0 8 -6 6 -12 -1 -7 4 -24 12 -38 7 -14 13
-27 13 -30 -1 -3 6 -23 15 -45 9 -22 16 -43 14 -47 -1 -5 3 -8 9 -8 5 0 7 -4
4 -10 -3 -5 -2 -10 4 -10 5 0 13 -10 17 -22 3 -13 30 -57 59 -100 55 -79 56
-98 9 -98 -12 0 -38 -7 -58 -15 -20 -8 -37 -15 -38 -14 -2 1 -25 -6 -53 -14
-181 -56 -326 -148 -352 -224 -34 -96 100 -210 327 -278 30 -9 62 -19 70 -22
8 -2 15 -4 15 -3 0 0 23 -7 50 -15 50 -16 61 -19 125 -30 19 -3 53 -11 75 -17
22 -6 49 -12 60 -13 26 -3 96 -15 115 -20 8 -2 35 -7 60 -11 25 -3 56 -8 70
-10 14 -2 45 -6 70 -9 25 -3 59 -7 75 -10 17 -2 57 -7 90 -10 33 -3 76 -8 95
-11 19 -4 53 -8 75 -9 22 -2 74 -6 115 -10 363 -32 556 -39 1025 -38 377 0
615 6 760 18 28 2 93 7 145 10 52 4 124 9 160 11 36 3 85 7 110 8 25 2 59 6
75 9 17 4 61 9 99 12 38 3 79 7 90 10 12 2 46 7 76 10 56 5 72 8 168 25 29 5
56 9 60 9 4 -1 9 -1 12 1 3 1 16 3 30 6 124 21 216 44 410 98 65 19 205 81
259 116 73 46 95 77 95 135 0 49 -7 68 -38 98 -26 26 -128 97 -140 97 -2 0
-26 10 -53 22 -26 11 -52 22 -58 23 -5 2 -48 15 -95 30 -47 15 -98 29 -115 32
-48 8 -95 31 -95 46 0 8 12 27 28 43 31 33 45 53 103 141 22 35 44 63 48 63
14 0 176 155 229 218 19 23 53 67 78 99 24 32 48 63 54 70 5 7 10 19 10 27 0
8 4 17 9 21 5 3 12 18 16 34 5 26 71 93 78 81 6 -9 37 28 37 43 0 24 -40 91
-124 207 -22 30 -42 57 -43 59 -2 3 -19 -3 -38 -12 -34 -16 -41 -13 -35 18 1
5 2 23 2 40 0 16 3 34 6 39 2 4 6 27 8 50 2 22 6 68 9 101 25 268 31 447 20
590 -3 39 -8 108 -11 155 -7 112 -11 165 -20 225 -3 28 -8 70 -11 95 -3 25 -6
59 -8 75 -2 17 -6 46 -10 65 -3 19 -8 51 -10 70 -2 19 -6 42 -9 50 -3 8 -8 33
-11 55 -10 80 -14 102 -24 127 -5 14 -8 37 -7 52 2 14 0 26 -4 26 -5 0 -12 24
-16 53 -11 68 -11 71 -14 77 -1 3 -3 12 -5 20 -2 8 -7 26 -11 40 -3 14 -7 34
-8 46 -1 11 -6 25 -10 32 -4 7 -9 22 -12 35 -9 48 -13 63 -23 90 -6 15 -9 27
-6 27 2 0 -3 17 -12 38 -8 20 -15 37 -14 37 3 0 -3 20 -30 104 -13 40 -24 78
-24 85 0 6 -2 13 -5 16 -5 5 -40 96 -44 115 -1 6 -12 31 -24 57 -12 26 -22 54
-22 62 0 8 -3 16 -7 18 -12 5 -65 108 -56 108 4 0 3 4 -3 8 -8 6 -43 63 -88
147 -6 11 -25 40 -42 65 -46 68 -46 71 2 120 24 24 44 48 44 53 0 5 9 21 19
35 10 15 19 30 19 35 1 4 6 24 12 45 28 95 31 235 7 327 -9 31 -50 111 -78
150 -49 67 -174 155 -222 155 -9 0 -19 5 -22 10 -4 6 -11 8 -16 4 -5 -3 -15
-2 -22 3 -7 5 -32 11 -57 12 -25 2 -57 4 -71 5 -15 1 -44 -4 -65 -11z"/>
</g>
</svg>
